<?xml version="1.0" encoding="UTF-8"?>
<svg id="Layer_2" data-name="Layer 2" xmlns="http://www.w3.org/2000/svg" viewBox="0 0 325.25 163.51">
  <defs>
    <style>
      .cls-1 {
        fill: #bc6746;
      }
    </style>
  </defs>
  <g id="Layer_1-2" data-name="Layer 1">
    <g>
      <path class="cls-1" d="M309.43,163.44c-38.54,1.03-73.86-25.09-79.54-63.79-2.8,19.64-11.93,35.83-27.74,47.2-19.84,14.26-46.14,16.94-69.14,5.8-20.06-9.72-34.84-29.49-37.73-53.43-1.52,8.04-2.9,15.66-6.6,22.93-7.65,14.99-19.84,26.38-35.01,33.64-11.67,5.59-24.11,7.89-37.11,7.73-5.66-.07-11.11-.44-16.3-2.88,1.49-1.11,2.92-1.11,4.49-1.38,29.57-5.02,52.56-28.67,55.91-58.52C64.76,64.09,38.81,32.41,2.88,27.74c-1.26-.16-2.5-.42-2.88-1.77,5.88-2.55,11.58-2.75,17.71-2.8,24.94-.21,48.26,10.58,63.67,30.04,8.02,10.12,12.13,21.47,13.9,34.48,3.03-23.32,15.02-42.42,35.25-53.56,19.06-10.49,42.79-10.84,62.29-1.04,20.99,10.56,33.95,30.29,37.08,53.89,4.83-38.93,39.84-65.07,78.08-63.88,6.01.19,11.6.31,17.27,2.91-.28,1.21-1.77,1.54-2.88,1.67-21.71,2.48-40.43,15.83-50.1,33.58-11.52,21.16-10.74,45.22.86,65.28,9.49,16.41,25.24,27.6,43.59,31.6,2.9.63,5.43,1.01,8.36,2.25-4.84,2.48-9.81,2.9-15.66,3.05ZM85.12,117.94c10.65-23.98,4.86-51.12-14.03-69.02-12.58-11.93-28.67-19.19-46.53-20.76l13.58,8.89c19.77,15.28,29.49,39.38,26.81,64.21-2.72,25.15-17.72,45.96-40.72,57.23,25.85-1.6,50.62-17.43,60.88-40.55ZM295.2,155.07c-37.91-21.4-46.59-73.26-20.07-106.64,6.93-8.72,15.65-15,25.47-20.11-3.26-.61-5.91.33-9.04.93-19.38,3.74-36.7,14.78-47.36,31.55-8.9,14.01-11.76,30.83-7.47,46.84,7.64,28.53,34.51,48.08,63.77,51.02-1.42-1.81-3.36-2.02-5.31-3.59ZM224.75,92.85c0-34.28-27.79-62.08-62.08-62.08s-62.08,27.79-62.08,62.08,27.79,62.08,62.08,62.08,62.08-27.79,62.08-62.08Z"/>
      <path class="cls-1" d="M302.15,92.47c-6.05.9-9.17,4.36-10.89,10.45-1.56-5.73-4.83-9.7-11.17-10.43,6.48-1.24,10.15-5.03,11.09-11.77,1.58,6.51,4.41,10.43,10.97,11.76ZM291.23,98.02c1.46-2.91,3.04-4.29,5.16-5.83-2.51-1.51-3.87-3.39-5.02-5.61-1.61,2.68-3.1,4.47-5.37,5.82,2.51,1.3,3.63,3.17,5.23,5.63Z"/>
      <path class="cls-1" d="M33.8,103.12c-1.47-5.67-4.41-9.28-10.43-10.72,5.91-1.49,9.26-5.08,10.39-11.31,1.25,6.23,4.67,10.34,11.31,11.37-6.26.73-9.66,4.17-11.27,10.66ZM33.79,98.27c1.58-3.2,3.13-4.64,5.31-5.89-2.6-1.32-3.89-3.42-5.4-5.81-1.44,2.59-2.86,4.28-5.18,5.87,2.83,1.37,3.89,3.64,5.27,5.83Z"/>
      <rect class="cls-1" x="161.92" y="0" width="1.53" height="19.37"/>
      <rect class="cls-1" x="126.04" y="11.13" width="1.67" height="17.3" transform="translate(12.21 77.59) rotate(-35.62)"/>
      <path class="cls-1" d="M194.41,26.53c-.59.39-.77.66-.92.54s-.58-.88-.37-1.18l9.07-12.93c.28-.4.94-.36,1.33-.12.31.2.2.8-.18,1.34l-8.92,12.35Z"/>
      <path class="cls-1" d="M146.21,21.33c-2.26-3.13-3.1-6.58-3.97-9.96-.07-.28,1.18-.42,1.24-.19.84,3.31,3.29,6.2,2.73,10.15Z"/>
      <path class="cls-1" d="M183.05,11.68l-3.01,8.49c-.19.54-.54.68-.83.69-.56.02-.7-.61-.48-1.23l2.72-7.69c.1-.28.35-.66.47-.79.15-.16.74-.17,1.13.54Z"/>
    </g>
  </g>
</svg>