<?xml version="1.0" encoding="UTF-8"?>
<svg id="Layer_1" xmlns="http://www.w3.org/2000/svg" version="1.1" viewBox="0 0 548.7 36.9">
  <!-- Generator: Adobe Illustrator 30.0.0, SVG Export Plug-In . SVG Version: 2.1.1 Build 123)  -->
  <defs>
    <style>
      .st0 {
        fill: #fff;
      }
    </style>
  </defs>
  <path class="st0" d="M5.9,29.1L17.7,2.1c.2-.4.5-.8.9-1.3.4-.5.8-.8,1.1-.8.6,0,1,.1,1.2.3l11.3,27.9c.4.8.7,1.6.8,2.2.2.6.4,1.2.7,1.8.3.8.8,1.3,1.4,1.6.6.3,1.2.5,1.8.6.6,0,.9.1,1.1.1.1.3.2.6.3,1.1,0,.5,0,.8-.1.9-1.1,0-2.3-.2-3.6-.3-1.3-.1-2.6-.2-3.8-.2s-1.8,0-2.8,0c-1.1,0-2.1.1-3,.2-1,0-1.8.1-2.5.2,0-.1-.1-.3-.2-.6s0-.6,0-.9c0-.3,0-.5.2-.5.5,0,1.1,0,1.7-.3.7-.2,1.2-.4,1.6-.8.3-.3.5-.6.5-.9s-.1-.5-.3-1c-.2-.6-.5-1.3-.8-2.1-.3-.8-.6-1.6-1-2.5s-.7-1.7-1.2-2.8c-.2-.2-.3-.2-.4-.2-.8,0-1.5,0-2.3,0h-6c-.8,0-1.8,0-2.7,0-.2,0-.3,0-.4.3-.5,1.1-.9,2-1.2,2.8s-.6,1.3-.8,1.9c-.3.7-.5,1.4-.8,2.3-.3.8-.4,1.3-.4,1.5,0,.5.3.8,1,1.1.6.3,1.3.5,2,.6.7.1,1.1.2,1.3.2.2.2.3.5.2,1.1,0,.5,0,.8-.2,1-.9-.1-1.9-.2-2.8-.3-.9,0-2-.1-3.2-.1s-2.4,0-3.2.1c-.9,0-1.8.2-2.8.3-.1-.1-.2-.4-.2-.8s0-.8.1-1.1c.2,0,.6,0,1.2-.3.5-.2,1.1-.4,1.6-.6.5-.3.9-.5,1.1-.8.5-.8.8-1.4,1.1-1.9.2-.5.5-1.2.8-1.9ZM17,10.3l-4.7,10.8c0,.1,0,.2.1.2.6,0,1.3,0,2.3.1.9,0,1.7,0,2.3,0,.9,0,1.6,0,2.2,0,.6,0,1.3,0,2.2,0,0,0,.1,0,.2-.2l-4.6-10.8Z"/>
  <path class="st0" d="M59.7.1c1.7,0,3.4.3,5.1.8,1.7.6,3.1,1.5,4.3,2.8,1.1,1.3,1.7,3,1.7,5.1s-.2,2.1-.7,2.9c-.5.9-1,1.6-1.7,2.3-.7.6-1.3,1.1-2,1.5-.7.4-1.2.6-1.6.8-.2,0-.3.1-.3.2s0,0,0,0c.7,0,1.5.3,2.5.8,1,.4,2,1,3,1.8,1,.8,1.8,1.7,2.5,2.8.7,1.1,1,2.4,1,3.8s-.5,3.5-1.6,5.1c-1.1,1.6-2.5,2.9-4.2,3.9-1.6.9-3.4,1.5-5.4,1.6-2,.1-4,.2-6,.2h-12.9c-.1-.2-.2-.5-.2-1,0-.5,0-.8.2-1,.3,0,.7,0,1.2-.1.5,0,1-.1,1.5-.3.5-.1.8-.3.8-.5.2-.6.4-1.3.4-2.1,0-.9,0-1.9,0-3V8.2c0-1.2,0-2.2,0-3.1,0-.8-.2-1.6-.4-2.1,0-.3-.4-.5-.8-.6-.5-.1-1-.2-1.5-.2-.5,0-.9,0-1.2,0-.2-.2-.2-.5-.2-1.1s0-.9.2-1c1.2,0,2.6.1,4,.1,1.4,0,2.7,0,3.9,0s2.5,0,3.9,0,3,0,4.6,0ZM55.1,16.1h2.8c1.4,0,2.5-.6,3.4-1.7.9-1.1,1.3-2.7,1.3-4.8s-.4-4.5-1.2-5.6c-.8-1.1-1.9-1.7-3.4-1.7s-1.2,0-1.7,0c-.5,0-.9.2-1,.5-.1.3-.2.7-.2,1.1s0,1,0,1.6v10.4ZM55.1,18.2v12.3h0c0,.4,0,.9,0,1.6,0,.7.1,1.3.4,1.6.2.3.7.5,1.4.6s1.4.1,2.1.1,1.7-.2,2.6-.7c.9-.5,1.6-1.3,2.3-2.4.6-1.1.9-2.6.9-4.5s-.2-2.7-.6-4c-.4-1.3-1.1-2.4-2.1-3.2-1-.9-2.4-1.3-4.1-1.3h-2.8Z"/>
  <path class="st0" d="M88.4.4c1.2,0,2.5,0,4,0,1.5,0,2.8-.1,3.8-.3.1.2.2.5.2,1,0,.5,0,.9-.2,1-.2,0-.6,0-1.2,0-.5,0-1.1.2-1.5.3-.5.1-.8.3-.9.6-.2.5-.3,1.1-.3,1.9,0,.8,0,1.6,0,2.6v8.6s0,0,0,.2c1.1,0,2.2,0,3.2.1,1.1,0,2.2,0,3.5,0s2.1,0,3.2,0c1.1,0,2.2,0,3.2-.1,0-.1.1-.2.1-.2v-7.8c0-1.2,0-2.2-.1-3.1,0-.8-.2-1.6-.4-2.1,0-.3-.4-.5-.8-.6-.5-.1-1-.2-1.5-.3-.5,0-.9,0-1.2,0-.2-.2-.2-.5-.2-1,0-.5,0-.8.2-1,1.1.1,2.4.2,3.9.3,1.5,0,2.8,0,4,0s2.5,0,4,0c1.5,0,2.8-.1,3.8-.3.1.2.2.5.2,1,0,.5,0,.9-.2,1-.2,0-.6,0-1.2,0-.5,0-1.1.2-1.5.3-.5.1-.8.3-.9.6-.2.5-.3,1.1-.3,1.9,0,.8,0,1.6,0,2.6v21.7c0,1,0,1.8,0,2.6,0,.8.1,1.4.3,1.9.1.2.4.4.9.6s1,.3,1.5.3.9.1,1.2.1c.1.2.2.5.2,1,0,.5,0,.8-.2,1-1.1-.1-2.3-.2-3.9-.3-1.5,0-2.9-.1-4-.1s-2.5,0-3.9.1c-1.4,0-2.7.2-3.8.3-.1-.2-.2-.5-.2-1,0-.5,0-.8.2-1,.3,0,.6,0,1.2-.1.5,0,1-.2,1.5-.3.5-.2.8-.3.8-.6.2-.6.4-1.3.4-2.1,0-.9,0-1.9,0-3v-9.1c0,0,0-.2-.1-.3-1,0-2,0-3.1,0-1.1,0-2.1,0-3.3,0-2,0-3.5,0-4.5,0-.9,0-1.5,0-1.8,0-.3,0-.4,0-.5.1,0,0,0,.1,0,.2v9.8c0,1,0,1.8,0,2.6,0,.8.2,1.4.3,1.9.1.2.4.4.9.6.5.2,1,.3,1.5.3s.9.1,1.2.1c.1.2.2.5.2,1,0,.5,0,.8-.2,1-1.1-.1-2.3-.2-3.9-.3-1.5,0-2.9-.1-4-.1s-2.5,0-3.9.1c-1.5,0-2.7.2-3.8.3-.1-.2-.2-.5-.2-1s0-.8.2-1c.3,0,.7,0,1.2-.1.5,0,1-.2,1.5-.3.5-.2.8-.3.8-.6.2-.6.4-1.3.4-2.1,0-.9,0-1.9,0-3V8.2c0-1.2,0-2.2,0-3.1,0-.8-.2-1.6-.4-2.1,0-.3-.4-.5-.8-.6-.5-.1-1-.2-1.5-.3-.5,0-.9,0-1.2,0-.2-.2-.2-.5-.2-1s0-.8.2-1c1.1.1,2.4.2,3.9.3,1.5,0,2.8,0,4,0Z"/>
  <path class="st0" d="M127.8,29.1l11.7-27c.2-.4.5-.8.9-1.3.4-.5.8-.8,1.1-.8.6,0,1,.1,1.2.3l11.3,27.9c.4.8.7,1.6.8,2.2.2.6.4,1.2.7,1.8.3.8.8,1.3,1.4,1.6.6.3,1.2.5,1.8.6.6,0,.9.1,1.1.1.2.3.2.6.3,1.1,0,.5,0,.8-.1.9-1.1,0-2.3-.2-3.6-.3-1.3-.1-2.6-.2-3.8-.2s-1.8,0-2.8,0c-1.1,0-2.1.1-3,.2-1,0-1.8.1-2.5.2,0-.1-.1-.3-.2-.6,0-.3,0-.6,0-.9,0-.3,0-.5.2-.5.5,0,1.1,0,1.7-.3.7-.2,1.2-.4,1.6-.8.3-.3.5-.6.5-.9s-.1-.5-.3-1c-.2-.6-.5-1.3-.8-2.1-.3-.8-.6-1.6-1-2.5-.3-.8-.7-1.7-1.2-2.8-.2-.2-.3-.2-.4-.2-.8,0-1.6,0-2.3,0h-6c-.8,0-1.8,0-2.7,0-.2,0-.3,0-.4.3-.5,1.1-.9,2-1.2,2.8-.3.7-.6,1.3-.8,1.9-.3.7-.5,1.4-.8,2.3-.3.8-.4,1.3-.4,1.5,0,.5.3.8,1,1.1.6.3,1.3.5,2,.6.7.1,1.1.2,1.3.2.2.2.3.5.2,1.1,0,.5,0,.8-.2,1-.9-.1-1.9-.2-2.8-.3-.9,0-2-.1-3.2-.1s-2.4,0-3.2.1c-.9,0-1.8.2-2.8.3-.1-.1-.2-.4-.2-.8,0-.5,0-.8.1-1.1.2,0,.6,0,1.2-.3.5-.2,1.1-.4,1.6-.6.5-.3.9-.5,1.1-.8.5-.8.8-1.4,1.1-1.9.2-.5.5-1.2.8-1.9ZM138.8,10.3l-4.7,10.8c0,.1,0,.2.1.2.6,0,1.3,0,2.3.1.9,0,1.7,0,2.3,0,.9,0,1.6,0,2.2,0,.6,0,1.3,0,2.2,0,0,0,.1,0,.2-.2l-4.6-10.8Z"/>
  <path class="st0" d="M181.6.1c2.3,0,4.3.4,6.1,1.1,1.8.8,3.2,1.9,4.3,3.4,1.1,1.5,1.6,3.3,1.6,5.6s-.3,2.2-.8,3.2c-.5,1-1.2,1.9-1.9,2.7-.8.8-1.6,1.5-2.5,2-.8.5-1.6.9-2.3,1,1.4,1.8,2.6,3.5,3.8,5,1.2,1.6,2.6,3.3,4.1,5.2,1.4,1.7,2.7,3,4.1,3.7,1.4.8,2.5,1.2,3.4,1.4.9.2,1.5.3,1.6.3.1.2.2.6.1,1.1,0,.5-.1.9-.1.9-.8,0-1.9,0-3.4.1-1.4,0-2.7,0-3.9,0-2.1,0-3.9-.5-5.3-1.4-1.4-.9-2.5-1.8-3.1-2.8l-8.9-12c-.5-.6-.8-.8-1-.8h-.8v9.2c0,1,0,1.8,0,2.6,0,.8.1,1.4.3,1.9.1.2.4.4.9.6.5.2,1,.3,1.5.3.5,0,.9.1,1.2.1.1.2.2.5.2,1,0,.5,0,.8-.2,1-1.1-.1-2.3-.2-3.9-.3-1.5,0-2.9-.1-4-.1s-2.5,0-3.9.1c-1.5,0-2.7.2-3.8.3-.1-.2-.2-.5-.2-1,0-.5,0-.8.2-1,.3,0,.7,0,1.2-.1s1-.2,1.5-.3.8-.3.8-.6c.2-.6.4-1.3.4-2.1,0-.9,0-1.9,0-3V8.2c0-1.2,0-2.2,0-3.1s-.2-1.6-.4-2.1c0-.3-.4-.5-.8-.6-.5-.1-1-.2-1.5-.2-.5,0-.9,0-1.2,0-.2-.2-.2-.5-.2-1.1,0-.5,0-.9.2-1,1.2,0,2.6.1,4,.1,1.4,0,2.7,0,3.9,0s2.5,0,3.9,0c1.4,0,3,0,4.6,0ZM185.5,10.7c0-1.5-.2-2.8-.5-4.1-.3-1.3-.8-2.3-1.6-3.1-.8-.8-1.9-1.2-3.4-1.2s-1.2,0-1.7,0c-.5,0-.9.2-1,.5-.1.3-.2.7-.2,1.1,0,.5,0,1,0,1.6v12.2h2.5c1.1,0,2-.3,3-.9.9-.6,1.7-1.4,2.2-2.5.6-1.1.8-2.3.8-3.7Z"/>
  <path class="st0" d="M209.8,29.1l11.7-27c.2-.4.5-.8.9-1.3.4-.5.8-.8,1.1-.8.6,0,1,.1,1.2.3l11.3,27.9c.4.8.7,1.6.8,2.2.2.6.4,1.2.7,1.8.3.8.8,1.3,1.4,1.6.6.3,1.2.5,1.8.6.6,0,.9.1,1.1.1.2.3.2.6.3,1.1,0,.5,0,.8-.1.9-1.1,0-2.3-.2-3.6-.3-1.3-.1-2.6-.2-3.8-.2s-1.8,0-2.8,0c-1.1,0-2.1.1-3,.2-1,0-1.8.1-2.5.2,0-.1-.1-.3-.2-.6,0-.3,0-.6,0-.9,0-.3,0-.5.2-.5.5,0,1.1,0,1.7-.3.7-.2,1.2-.4,1.6-.8.3-.3.5-.6.5-.9s-.1-.5-.3-1c-.2-.6-.5-1.3-.8-2.1-.3-.8-.6-1.6-1-2.5-.3-.8-.7-1.7-1.2-2.8-.2-.2-.3-.2-.4-.2-.8,0-1.6,0-2.3,0h-6c-.8,0-1.8,0-2.7,0-.2,0-.3,0-.4.3-.5,1.1-.9,2-1.2,2.8-.3.7-.6,1.3-.8,1.9-.3.7-.5,1.4-.8,2.3-.3.8-.4,1.3-.4,1.5,0,.5.3.8,1,1.1.6.3,1.3.5,2,.6.7.1,1.1.2,1.3.2.2.2.3.5.2,1.1,0,.5,0,.8-.2,1-.9-.1-1.9-.2-2.8-.3-.9,0-2-.1-3.2-.1s-2.4,0-3.2.1c-.9,0-1.8.2-2.8.3-.1-.1-.2-.4-.2-.8,0-.5,0-.8.1-1.1.2,0,.6,0,1.2-.3.5-.2,1.1-.4,1.6-.6.5-.3.9-.5,1.1-.8.5-.8.8-1.4,1.1-1.9.2-.5.5-1.2.8-1.9ZM220.9,10.3l-4.7,10.8c0,.1,0,.2.1.2.6,0,1.3,0,2.3.1.9,0,1.7,0,2.3,0,.9,0,1.6,0,2.2,0,.6,0,1.3,0,2.2,0,0,0,.1,0,.2-.2l-4.6-10.8Z"/>
  <path class="st0" d="M253.5.4c1,0,2,0,3.1,0,1.1,0,2.1-.1,2.9-.3.5,1.1,1.4,2.4,2.7,4.1,1.3,1.7,2.7,3.6,4.4,5.7,1.7,2.1,3.4,4.2,5.3,6.5,1.8,2.2,3.6,4.4,5.3,6.5,0-.2.1-.5.1-1v-11.6c0-.7,0-1.6,0-2.6s-.1-1.9-.2-2.8c0-.9-.2-1.4-.3-1.7-.2-.3-.5-.6-1.2-.8-.6-.2-1.3-.3-1.9-.3-.7,0-1.1,0-1.3,0s0-.3-.1-.8c0-.5,0-.9.1-1.2,1.3,0,2.4.1,3.4.2,1,.1,2.1.2,3.4.2s2.4,0,3.6-.2c1.2-.1,2.3-.2,3.4-.2,0,.2.1.5.1.9,0,.5,0,.9-.3,1.2-.2,0-.6,0-1.2,0-.7,0-1.4.1-2.1.3-.7.2-1.1.5-1.3.9,0,.3-.2.8-.3,1.6,0,.8-.2,1.7-.2,2.7,0,1,0,1.8,0,2.5v18.7c0,1.6,0,3,0,4,0,1.1.1,2.3.1,3.7,0,0-.3.1-.7.2-.4,0-.6,0-.7,0-.3,0-.5-.1-.8-.4-.3-.2-.6-.6-.9-.9l-22.4-27.6v20c0,1,0,2,.2,3.1s.3,1.8.4,2.2c.2.3.6.6,1.2.8.7.2,1.4.4,2,.5.7,0,1.1.1,1.2.1.2.3.3.6.3,1.1,0,.5,0,.8-.1,1-1.1,0-2.2-.2-3.4-.3-1.2-.1-2.3-.2-3.6-.2s-2.4,0-3.4.2c-1,.1-2.1.2-3.4.3-.2-.3-.2-.7-.1-1.2s.1-.8.1-.8c.2,0,.7,0,1.3-.2.7-.1,1.3-.3,1.9-.5.6-.2,1-.5,1.2-.8.2-.4.3-1.2.5-2.3.1-1.1.2-2.2.2-3.2V8.2c0-.8,0-1.6-.2-2.7-.2-1-.4-1.8-.8-2.3-.2-.3-.5-.5-1-.6-.5-.2-1-.3-1.5-.4-.5,0-.9-.1-1.1-.1s-.1-.1-.2-.5c0-.3,0-.6,0-1,0-.3,0-.5.1-.6.9,0,1.8.1,2.8.2,1,0,2.1.1,3.4.1Z"/>
  <path class="st0" d="M294.6,29.1l11.7-27c.2-.4.5-.8.9-1.3.4-.5.8-.8,1.1-.8.6,0,1,.1,1.2.3l11.3,27.9c.4.8.7,1.6.8,2.2.2.6.4,1.2.7,1.8.3.8.8,1.3,1.4,1.6.6.3,1.2.5,1.8.6.6,0,.9.1,1.1.1.2.3.2.6.3,1.1,0,.5,0,.8-.1.9-1.1,0-2.3-.2-3.6-.3-1.3-.1-2.6-.2-3.8-.2s-1.8,0-2.8,0c-1.1,0-2.1.1-3,.2-1,0-1.8.1-2.5.2,0-.1-.1-.3-.2-.6,0-.3,0-.6,0-.9,0-.3,0-.5.2-.5.5,0,1.1,0,1.7-.3.7-.2,1.2-.4,1.6-.8.3-.3.5-.6.5-.9s-.1-.5-.3-1c-.2-.6-.5-1.3-.8-2.1-.3-.8-.6-1.6-1-2.5-.3-.8-.7-1.7-1.2-2.8-.2-.2-.3-.2-.4-.2-.8,0-1.6,0-2.3,0h-6c-.8,0-1.8,0-2.7,0-.2,0-.3,0-.4.3-.5,1.1-.9,2-1.2,2.8-.3.7-.6,1.3-.8,1.9-.3.7-.5,1.4-.8,2.3-.3.8-.4,1.3-.4,1.5,0,.5.3.8,1,1.1.6.3,1.3.5,2,.6.7.1,1.1.2,1.3.2.2.2.3.5.2,1.1,0,.5,0,.8-.2,1-.9-.1-1.9-.2-2.8-.3-.9,0-2-.1-3.2-.1s-2.4,0-3.2.1c-.9,0-1.8.2-2.8.3-.1-.1-.2-.4-.2-.8,0-.5,0-.8.1-1.1.2,0,.6,0,1.2-.3.5-.2,1.1-.4,1.6-.6.5-.3.9-.5,1.1-.8.5-.8.8-1.4,1.1-1.9.2-.5.5-1.2.8-1.9ZM305.6,10.3l-4.7,10.8c0,.1,0,.2.1.2.6,0,1.3,0,2.3.1.9,0,1.7,0,2.3,0,.9,0,1.6,0,2.2,0,.6,0,1.3,0,2.2,0,0,0,.1,0,.2-.2l-4.6-10.8Z"/>
  <path class="st0" d="M359.7.4c1.2,0,2.5,0,4,0,1.5,0,2.8-.1,3.8-.3.1.2.2.5.2,1,0,.5,0,.9-.2,1-.2,0-.6,0-1.2,0-.5,0-1.1.2-1.5.3-.5.1-.8.3-.9.6-.2.5-.3,1.1-.3,1.9,0,.8,0,1.6,0,2.6v10.4c2.4-1.9,4.3-3.6,5.7-5,1.1-1.1,2.1-2.1,2.8-2.9s1.5-1.6,2.2-2.3,1.4-1.6,2.1-2.7c.3-.4.5-.7.5-1,0-.3,0-.6,0-.8,0-.4-.2-.7-.6-.9-.4-.2-.9-.3-1.4-.3-.5,0-.9,0-1.1,0-.2-.2-.2-.5-.2-1s0-.8.1-1c1,0,2.2.1,3.6.2,1.4,0,2.6.1,3.6.1,2.5,0,4.8-.1,6.8-.3,0,.2.1.5.1,1s0,.8-.2,1c-.2,0-.6,0-1.4.2-.8.1-1.6.4-2.5.7-.9.3-1.7.8-2.4,1.5-1.4,1.4-2.6,2.6-3.6,3.7-1.1,1.1-2.2,2.2-3.4,3.5-1.2,1.2-2.3,2.4-3.3,3.5-.3.3-.3.6-.2.9,1,1.4,2.1,2.8,3.2,4.3,1.1,1.5,2.2,3,3.2,4.4,1,1.4,2.2,2.9,3.4,4.7,1.4,1.7,2.7,3,4.1,3.7,1.4.8,2.5,1.2,3.4,1.4.9.2,1.5.3,1.6.3.1.2.2.6.1,1.1,0,.5-.1.9-.1.9-.8,0-1.9,0-3.4.1-1.4,0-2.7,0-3.9,0-2.1,0-3.9-.5-5.3-1.4-1.4-.9-2.5-1.8-3.1-2.8-.3-.5-.9-1.3-1.7-2.4-.8-1.1-1.7-2.3-2.7-3.6-1-1.3-2-2.6-2.9-3.9-.9-1.2-1.7-2.3-2.3-3.1-.2-.1-.3-.2-.6-.2s-.4.1-.5.3v9.2c0,1,0,1.8,0,2.6,0,.8.1,1.4.3,1.9.1.2.4.4.9.6s1,.3,1.5.3.9.1,1.2.1c.1.2.2.5.2,1,0,.5,0,.8-.2,1-1.1-.1-2.3-.2-3.9-.3-1.5,0-2.9-.1-4-.1s-2.5,0-3.9.1c-1.5,0-2.7.2-3.8.3-.1-.2-.2-.5-.2-1,0-.5,0-.8.2-1,.3,0,.7,0,1.2-.1.5,0,1-.2,1.5-.3.5-.2.8-.3.8-.6.2-.6.4-1.3.4-2.1,0-.9,0-1.9,0-3V8.2c0-1.2,0-2.2,0-3.1,0-.8-.2-1.6-.4-2.1,0-.3-.4-.5-.8-.6-.5-.1-1-.2-1.5-.3-.5,0-.9,0-1.2,0-.2-.2-.2-.5-.2-1,0-.5,0-.8.2-1,1.1.1,2.4.2,3.9.3,1.5,0,2.8,0,4,0Z"/>
  <path class="st0" d="M397.9,29.1l11.7-27c.2-.4.5-.8.9-1.3.4-.5.8-.8,1.1-.8.6,0,1,.1,1.2.3l11.3,27.9c.4.8.7,1.6.8,2.2.2.6.4,1.2.7,1.8.3.8.8,1.3,1.4,1.6.6.3,1.2.5,1.8.6.6,0,.9.1,1.1.1.2.3.2.6.3,1.1,0,.5,0,.8-.1.9-1.1,0-2.3-.2-3.6-.3-1.3-.1-2.6-.2-3.8-.2s-1.8,0-2.8,0c-1.1,0-2.1.1-3,.2-1,0-1.8.1-2.5.2,0-.1-.1-.3-.2-.6,0-.3,0-.6,0-.9,0-.3,0-.5.2-.5.5,0,1.1,0,1.7-.3.7-.2,1.2-.4,1.6-.8.3-.3.5-.6.5-.9s-.1-.5-.3-1c-.2-.6-.5-1.3-.8-2.1-.3-.8-.6-1.6-1-2.5-.3-.8-.7-1.7-1.2-2.8-.2-.2-.3-.2-.4-.2-.8,0-1.6,0-2.3,0h-6c-.8,0-1.8,0-2.7,0-.2,0-.3,0-.4.3-.5,1.1-.9,2-1.2,2.8-.3.7-.6,1.3-.8,1.9-.3.7-.5,1.4-.8,2.3-.3.8-.4,1.3-.4,1.5,0,.5.3.8,1,1.1.6.3,1.3.5,2,.6.7.1,1.1.2,1.3.2.2.2.3.5.2,1.1,0,.5,0,.8-.2,1-.9-.1-1.9-.2-2.8-.3-.9,0-2-.1-3.2-.1s-2.4,0-3.2.1c-.9,0-1.8.2-2.8.3-.1-.1-.2-.4-.2-.8,0-.5,0-.8.1-1.1.2,0,.6,0,1.2-.3.5-.2,1.1-.4,1.6-.6.5-.3.9-.5,1.1-.8.5-.8.8-1.4,1.1-1.9.2-.5.5-1.2.8-1.9ZM409,10.3l-4.7,10.8c0,.1,0,.2.1.2.6,0,1.3,0,2.3.1.9,0,1.7,0,2.3,0,.9,0,1.6,0,2.2,0,.6,0,1.3,0,2.2,0,0,0,.1,0,.2-.2l-4.6-10.8Z"/>
  <path class="st0" d="M443.2.4c1.2,0,2.5,0,4,0,1.5,0,2.8-.1,3.8-.3.1.2.2.5.2,1,0,.5,0,.9-.2,1-.2,0-.6,0-1.2,0-.5,0-1.1.2-1.5.3-.5.1-.8.3-.9.6-.2.5-.3,1.1-.3,1.9,0,.8,0,1.6,0,2.6v10.4c2.4-1.9,4.3-3.6,5.7-5,1.1-1.1,2.1-2.1,2.8-2.9s1.5-1.6,2.2-2.3,1.4-1.6,2.1-2.7c.3-.4.5-.7.5-1,0-.3,0-.6,0-.8,0-.4-.2-.7-.6-.9-.4-.2-.9-.3-1.4-.3-.5,0-.9,0-1.1,0-.2-.2-.2-.5-.2-1s0-.8.1-1c1,0,2.2.1,3.6.2,1.4,0,2.6.1,3.6.1,2.5,0,4.8-.1,6.8-.3,0,.2.1.5.1,1s0,.8-.2,1c-.2,0-.6,0-1.4.2-.8.1-1.6.4-2.5.7-.9.3-1.7.8-2.4,1.5-1.4,1.4-2.6,2.6-3.6,3.7-1.1,1.1-2.2,2.2-3.4,3.5-1.2,1.2-2.3,2.4-3.3,3.5-.3.3-.3.6-.2.9,1,1.4,2.1,2.8,3.2,4.3,1.1,1.5,2.2,3,3.2,4.4,1,1.4,2.2,2.9,3.4,4.7,1.4,1.7,2.7,3,4.1,3.7,1.4.8,2.5,1.2,3.4,1.4.9.2,1.5.3,1.6.3.1.2.2.6.1,1.1,0,.5-.1.9-.1.9-.8,0-1.9,0-3.4.1-1.4,0-2.7,0-3.9,0-2.1,0-3.9-.5-5.3-1.4-1.4-.9-2.5-1.8-3.1-2.8-.3-.5-.9-1.3-1.7-2.4-.8-1.1-1.7-2.3-2.7-3.6-1-1.3-2-2.6-2.9-3.9-.9-1.2-1.7-2.3-2.3-3.1-.2-.1-.3-.2-.6-.2s-.4.1-.5.3v9.2c0,1,0,1.8,0,2.6,0,.8.1,1.4.3,1.9.1.2.4.4.9.6s1,.3,1.5.3.9.1,1.2.1c.1.2.2.5.2,1,0,.5,0,.8-.2,1-1.1-.1-2.3-.2-3.9-.3-1.5,0-2.9-.1-4-.1s-2.5,0-3.9.1c-1.5,0-2.7.2-3.8.3-.1-.2-.2-.5-.2-1,0-.5,0-.8.2-1,.3,0,.7,0,1.2-.1.5,0,1-.2,1.5-.3.5-.2.8-.3.8-.6.2-.6.4-1.3.4-2.1,0-.9,0-1.9,0-3V8.2c0-1.2,0-2.2,0-3.1,0-.8-.2-1.6-.4-2.1,0-.3-.4-.5-.8-.6-.5-.1-1-.2-1.5-.3-.5,0-.9,0-1.2,0-.2-.2-.2-.5-.2-1,0-.5,0-.8.2-1,1.1.1,2.4.2,3.9.3,1.5,0,2.8,0,4,0Z"/>
  <path class="st0" d="M481.4,29.1l11.7-27c.2-.4.5-.8.9-1.3.4-.5.8-.8,1.1-.8.6,0,1,.1,1.2.3l11.3,27.9c.4.8.7,1.6.8,2.2.2.6.4,1.2.7,1.8.3.8.8,1.3,1.4,1.6.6.3,1.2.5,1.8.6.6,0,.9.1,1.1.1.2.3.2.6.3,1.1,0,.5,0,.8-.1.9-1.1,0-2.3-.2-3.6-.3-1.3-.1-2.6-.2-3.8-.2s-1.8,0-2.8,0c-1.1,0-2.1.1-3,.2-1,0-1.8.1-2.5.2,0-.1-.1-.3-.2-.6,0-.3,0-.6,0-.9,0-.3,0-.5.2-.5.5,0,1.1,0,1.7-.3.7-.2,1.2-.4,1.6-.8.3-.3.5-.6.5-.9s-.1-.5-.3-1c-.2-.6-.5-1.3-.8-2.1-.3-.8-.6-1.6-1-2.5-.3-.8-.7-1.7-1.2-2.8-.2-.2-.3-.2-.4-.2-.8,0-1.6,0-2.3,0h-6c-.8,0-1.8,0-2.7,0-.2,0-.3,0-.4.3-.5,1.1-.9,2-1.2,2.8-.3.7-.6,1.3-.8,1.9-.3.7-.5,1.4-.8,2.3-.3.8-.4,1.3-.4,1.5,0,.5.3.8,1,1.1.6.3,1.3.5,2,.6.7.1,1.1.2,1.3.2.2.2.3.5.2,1.1,0,.5,0,.8-.2,1-.9-.1-1.9-.2-2.8-.3-.9,0-2-.1-3.2-.1s-2.4,0-3.2.1c-.9,0-1.8.2-2.8.3-.1-.1-.2-.4-.2-.8,0-.5,0-.8.1-1.1.2,0,.6,0,1.2-.3.5-.2,1.1-.4,1.6-.6.5-.3.9-.5,1.1-.8.5-.8.8-1.4,1.1-1.9.2-.5.5-1.2.8-1.9ZM492.5,10.3l-4.7,10.8c0,.1,0,.2.1.2.6,0,1.3,0,2.3.1.9,0,1.7,0,2.3,0,.9,0,1.6,0,2.2,0,.6,0,1.3,0,2.2,0,0,0,.1,0,.2-.2l-4.6-10.8Z"/>
  <path class="st0" d="M530.6,28.7h0v1.2c0,.5,0,1.1,0,1.7s.2,1.1.3,1.4c.2.4.7.7,1.4.8.8.2,1.5.3,2.2.3h3.6c1.1,0,2-.2,2.9-.5.9-.3,1.6-.8,2.2-1.4.6-.6,1.1-1.3,1.6-2.1.5-.8.9-1.9,1.4-3.1,0-.2.3-.3.7-.3s.6,0,1,.1.6.2.7.2c-.3,1-.7,2-1.1,3.2-.4,1.2-.8,2.3-1.1,3.4-.3,1.1-.6,2-.7,2.9h-19c-2,0-3.7,0-5.1,0-1.5,0-2.4,0-2.8,0-.1-.2-.2-.5-.2-1,0-.5,0-.8.2-1,.3,0,.7,0,1.2-.1.5,0,1-.1,1.5-.3.5-.1.8-.3.8-.5.2-.6.4-1.3.4-2.1,0-.9,0-1.9,0-3V8.2c0-1.2,0-2.2,0-3.1,0-.8-.2-1.6-.4-2.1,0-.3-.4-.5-.8-.6-.5-.1-1-.2-1.5-.3-.5,0-.9,0-1.2,0-.2-.2-.2-.5-.2-1,0-.5,0-.8.2-1,1.1.1,2.4.2,3.9.3,1.5,0,2.8,0,4,0s2.5,0,4,0c1.5,0,2.8-.1,3.8-.3.1.2.2.5.2,1,0,.5,0,.9-.2,1-.2,0-.6,0-1.2,0-.5,0-1.1.2-1.5.3-.5.1-.8.3-.9.6-.2.5-.3,1.1-.3,1.9,0,.8,0,1.6,0,2.6v21.2Z"/>
</svg>